<?xml version="1.0" encoding="utf-8"?>
<!-- Generator: Adobe Illustrator 16.0.0, SVG Export Plug-In . SVG Version: 6.00 Build 0)  -->
<!DOCTYPE svg PUBLIC "-//W3C//DTD SVG 1.1//EN" "http://www.w3.org/Graphics/SVG/1.1/DTD/svg11.dtd">
<svg version="1.1" id="Layer_1_xA0_Image_1_" xmlns="http://www.w3.org/2000/svg" xmlns:xlink="http://www.w3.org/1999/xlink"
	 x="0px" y="0px" width="110.125px" height="44.22px" viewBox="0 0 110.125 44.22" enable-background="new 0 0 110.125 44.22"
	 xml:space="preserve">
<g>
	<path fill="#1BA68F" d="M11.112,10.704c-1.072,1.409-1.608,3.281-1.608,5.616v1.104h5.76c0.511,0,0.919,0.152,1.224,0.456
		c0.304,0.304,0.456,0.696,0.456,1.176c0,0.449-0.152,0.824-0.456,1.128c-0.304,0.305-0.712,0.456-1.224,0.456h-5.76v20.208
		c0,0.576-0.168,1.032-0.504,1.368S8.191,42.72,7.584,42.72c-0.512,0-0.936-0.168-1.272-0.504s-0.504-0.792-0.504-1.368V20.64H2.736
		c-0.512,0-0.92-0.151-1.224-0.456c-0.305-0.304-0.456-0.679-0.456-1.128c0-0.48,0.151-0.872,0.456-1.176
		c0.304-0.304,0.711-0.456,1.224-0.456h3.072v-0.912c0-3.424,0.88-6.16,2.64-8.208c1.759-2.047,4.24-3.072,7.44-3.072
		c0.543,0,0.991,0.16,1.344,0.48c0.352,0.32,0.528,0.72,0.528,1.2s-0.176,0.88-0.528,1.2c-0.353,0.32-0.8,0.48-1.344,0.48
		C13.776,8.592,12.184,9.296,11.112,10.704z"/>
	<path fill="#1BA68F" d="M38.4,17.88c1.824,1.104,3.24,2.632,4.248,4.584c1.008,1.952,1.512,4.176,1.512,6.672
		c0,0.512-0.16,0.92-0.48,1.224c-0.32,0.304-0.736,0.456-1.248,0.456H23.041c0.256,2.624,1.279,4.752,3.072,6.384
		c1.792,1.632,4.032,2.448,6.72,2.448c1.152,0,2.312-0.2,3.48-0.6c1.167-0.4,2.104-0.904,2.808-1.512
		c0.416-0.319,0.847-0.48,1.296-0.48c0.352,0,0.704,0.128,1.056,0.384c0.416,0.384,0.624,0.816,0.624,1.296
		c0,0.416-0.176,0.784-0.528,1.104c-1.056,0.896-2.4,1.64-4.032,2.232c-1.632,0.592-3.201,0.888-4.704,0.888
		c-2.561,0-4.848-0.568-6.864-1.704c-2.016-1.136-3.592-2.72-4.728-4.752c-1.136-2.032-1.704-4.328-1.704-6.888
		c0-2.592,0.535-4.903,1.608-6.936c1.072-2.032,2.56-3.616,4.464-4.752c1.903-1.136,4.072-1.704,6.504-1.704
		C34.48,16.224,36.576,16.776,38.4,17.88z M26.064,21.792c-1.601,1.505-2.576,3.488-2.928,5.952h17.568
		c-0.257-2.464-1.152-4.447-2.688-5.952c-1.536-1.503-3.504-2.256-5.904-2.256C29.68,19.536,27.664,20.289,26.064,21.792z"/>
	<path fill="#1BA68F" d="M65.448,16.704c0.784,0.353,1.176,0.848,1.176,1.488c0,0.192-0.017,0.336-0.048,0.432
		c-0.128,0.449-0.329,0.752-0.6,0.912c-0.272,0.161-0.648,0.24-1.128,0.24c-0.288,0-0.785-0.032-1.488-0.096
		c-0.256-0.031-0.64-0.048-1.152-0.048c-2.4,0-4.36,0.641-5.88,1.92c-1.521,1.28-2.28,2.944-2.28,4.992v14.352
		c0,0.576-0.16,1.025-0.48,1.344c-0.32,0.32-0.768,0.48-1.344,0.48s-1.024-0.16-1.344-0.48c-0.32-0.319-0.48-0.768-0.48-1.344
		V18.288c0-0.576,0.16-1.023,0.48-1.344c0.32-0.32,0.768-0.48,1.344-0.48s1.024,0.16,1.344,0.48c0.32,0.32,0.48,0.768,0.48,1.344
		V20.4c0.928-1.344,2.112-2.384,3.552-3.12c1.44-0.736,2.992-1.104,4.656-1.104C63.6,16.176,64.664,16.353,65.448,16.704z"/>
	<path fill="#1BA68F" d="M90.936,17.616c1.808,0.96,3.224,2.36,4.248,4.2c1.023,1.84,1.536,4.04,1.536,6.6v12.48
		c0,0.513-0.176,0.944-0.528,1.296c-0.353,0.353-0.785,0.528-1.296,0.528c-0.544,0-0.992-0.175-1.344-0.528
		c-0.352-0.352-0.528-0.784-0.528-1.296v-12.48c0-2.848-0.792-5.016-2.376-6.504c-1.584-1.488-3.656-2.232-6.216-2.232
		c-1.568,0-2.984,0.305-4.248,0.912c-1.265,0.608-2.264,1.448-3,2.52c-0.737,1.072-1.104,2.264-1.104,3.576v14.208
		c0,0.545-0.168,0.984-0.504,1.32c-0.336,0.336-0.776,0.504-1.32,0.504c-0.544,0-0.992-0.168-1.344-0.504
		c-0.353-0.336-0.528-0.775-0.528-1.32v-22.56c0-0.544,0.176-0.992,0.528-1.344c0.352-0.352,0.799-0.528,1.344-0.528
		c0.544,0,0.984,0.176,1.32,0.528c0.336,0.353,0.504,0.8,0.504,1.344v1.632c1.056-1.184,2.335-2.112,3.84-2.784
		c1.504-0.672,3.136-1.008,4.896-1.008C87.088,16.176,89.128,16.656,90.936,17.616z"/>
	<path fill="#FFAA81" d="M107.711,38.712c0.544,0.56,0.816,1.224,0.816,1.992s-0.272,1.424-0.816,1.968
		c-0.544,0.543-1.2,0.816-1.968,0.816s-1.424-0.272-1.968-0.816c-0.544-0.544-0.816-1.2-0.816-1.968c0-0.799,0.28-1.471,0.84-2.016
		c0.559-0.543,1.207-0.816,1.944-0.816C106.512,37.872,107.167,38.153,107.711,38.712z"/>
</g>
</svg>
